<?xml version="1.0" encoding="UTF-8" standalone="no"?><svg xmlns="http://www.w3.org/2000/svg" xmlns:xlink="http://www.w3.org/1999/xlink" contentStyleType="text/css" height="381px" preserveAspectRatio="none" style="width:141px;height:381px;background:#FFFFFF;" version="1.1" viewBox="0 0 141 381" width="141px" zoomAndPan="magnify"><defs/><g><!--MD5=[6125c8aff085dc12474505dfcb0675f2]
class modalitas--><g id="elem_modalitas"><rect codeLine="1" fill="#F1F1F1" height="100.8281" id="modalitas" rx="2.5" ry="2.5" style="stroke:#181818;stroke-width:0.5;" width="92" x="24.5" y="7"/><ellipse cx="39.5" cy="23" fill="#ADD1B2" rx="11" ry="11" style="stroke:#181818;stroke-width:1.0;"/><path d="M38.3594,23.7969 L38.3594,26.2969 L42.6875,26.2969 L42.6875,25.375 Q42.6875,24.7656 42.9297,24.5 Q43.1719,24.2344 43.5469,24.2344 Q43.9219,24.2344 44.1563,24.5 Q44.3906,24.7656 44.3906,25.375 L44.3906,28 L36.3906,28 Q35.7656,28 35.5078,27.7656 Q35.25,27.5313 35.25,27.1406 Q35.25,26.7656 35.5156,26.5313 Q35.7813,26.2969 36.3906,26.2969 L36.6563,26.2969 L36.6563,19.6406 L36.3906,19.6406 Q35.7656,19.6406 35.5078,19.4063 Q35.25,19.1719 35.25,18.7813 Q35.25,18.4063 35.5078,18.1719 Q35.7656,17.9375 36.3906,17.9375 L44.0156,17.9375 L44.0156,20.5313 Q44.0156,21.1406 43.7891,21.3984 Q43.5625,21.6563 43.1719,21.6563 Q42.7969,21.6563 42.5625,21.3984 Q42.3281,21.1406 42.3281,20.5313 L42.3281,19.6406 L38.3594,19.6406 L38.3594,22.0938 L39.8438,22.0938 Q39.8438,21.4375 39.9688,21.25 Q40.2344,20.8438 40.7031,20.8438 Q41.0781,20.8438 41.3125,21.1016 Q41.5469,21.3594 41.5469,21.9688 L41.5469,23.9375 Q41.5469,24.4844 41.4219,24.6719 Q41.1563,25.0625 40.7031,25.0625 Q40.2344,25.0625 39.9688,24.6563 Q39.8438,24.4688 39.8438,23.7969 L38.3594,23.7969 Z " fill="#000000"/><text fill="#000000" font-family="sans-serif" font-size="14" lengthAdjust="spacing" textLength="60" x="53.5" y="28.7285">modalitas</text><line style="stroke:#181818;stroke-width:0.5;" x1="25.5" x2="115.5" y1="39" y2="39"/><text fill="#000000" font-family="sans-serif" font-size="14" lengthAdjust="spacing" textLength="20" x="30.5" y="57.5332">CR</text><text fill="#000000" font-family="sans-serif" font-size="14" lengthAdjust="spacing" textLength="19" x="30.5" y="75.1426">CT</text><text fill="#000000" font-family="sans-serif" font-size="14" lengthAdjust="spacing" textLength="18" x="30.5" y="92.752">US</text><line style="stroke:#181818;stroke-width:0.5;" x1="25.5" x2="115.5" y1="99.8281" y2="99.8281"/></g><!--MD5=[183a082acfc5691d31e2920b954b532f]
class study--><g id="elem_study"><rect codeLine="7" fill="#F1F1F1" height="206.4844" id="study" rx="2.5" ry="2.5" style="stroke:#181818;stroke-width:0.5;" width="127" x="7" y="168"/><ellipse cx="49.45" cy="184" fill="#ADD1B2" rx="11" ry="11" style="stroke:#181818;stroke-width:1.0;"/><path d="M48.3094,184.7969 L48.3094,187.2969 L52.6375,187.2969 L52.6375,186.375 Q52.6375,185.7656 52.8797,185.5 Q53.1219,185.2344 53.4969,185.2344 Q53.8719,185.2344 54.1063,185.5 Q54.3406,185.7656 54.3406,186.375 L54.3406,189 L46.3406,189 Q45.7156,189 45.4578,188.7656 Q45.2,188.5313 45.2,188.1406 Q45.2,187.7656 45.4656,187.5313 Q45.7313,187.2969 46.3406,187.2969 L46.6063,187.2969 L46.6063,180.6406 L46.3406,180.6406 Q45.7156,180.6406 45.4578,180.4063 Q45.2,180.1719 45.2,179.7813 Q45.2,179.4063 45.4578,179.1719 Q45.7156,178.9375 46.3406,178.9375 L53.9656,178.9375 L53.9656,181.5313 Q53.9656,182.1406 53.7391,182.3984 Q53.5125,182.6563 53.1219,182.6563 Q52.7469,182.6563 52.5125,182.3984 Q52.2781,182.1406 52.2781,181.5313 L52.2781,180.6406 L48.3094,180.6406 L48.3094,183.0938 L49.7938,183.0938 Q49.7938,182.4375 49.9188,182.25 Q50.1844,181.8438 50.6531,181.8438 Q51.0281,181.8438 51.2625,182.1016 Q51.4969,182.3594 51.4969,182.9688 L51.4969,184.9375 Q51.4969,185.4844 51.3719,185.6719 Q51.1063,186.0625 50.6531,186.0625 Q50.1844,186.0625 49.9188,185.6563 Q49.7938,185.4688 49.7938,184.7969 L48.3094,184.7969 Z " fill="#000000"/><text fill="#000000" font-family="sans-serif" font-size="14" lengthAdjust="spacing" textLength="34" x="69.55" y="189.7285">study</text><line style="stroke:#181818;stroke-width:0.5;" x1="8" x2="133" y1="200" y2="200"/><text fill="#000000" font-family="sans-serif" font-size="14" lengthAdjust="spacing" textLength="77" x="13" y="218.5332">CR - Thorax</text><text fill="#000000" font-family="sans-serif" font-size="14" lengthAdjust="spacing" textLength="93" x="13" y="236.1426">CR - Extrimitas</text><text fill="#000000" font-family="sans-serif" font-size="14" lengthAdjust="spacing" textLength="62" x="13" y="253.752">CR - BNO</text><text fill="#000000" font-family="sans-serif" font-size="14" lengthAdjust="spacing" textLength="88" x="13" y="271.3613">CT - CT Head</text><text fill="#000000" font-family="sans-serif" font-size="14" lengthAdjust="spacing" textLength="115" x="13" y="288.9707">CT - CT Abdomen</text><text fill="#000000" font-family="sans-serif" font-size="14" lengthAdjust="spacing" textLength="59" x="13" y="306.5801">CT - SPN</text><text fill="#000000" font-family="sans-serif" font-size="14" lengthAdjust="spacing" textLength="86" x="13" y="324.1895">US - Vascular</text><text fill="#000000" font-family="sans-serif" font-size="14" lengthAdjust="spacing" textLength="91" x="13" y="341.7988">US - Abdomen</text><text fill="#000000" font-family="sans-serif" font-size="14" lengthAdjust="spacing" textLength="68" x="13" y="359.4082">US - Pelvis</text><line style="stroke:#181818;stroke-width:0.5;" x1="8" x2="133" y1="366.4844" y2="366.4844"/></g><!--MD5=[cb9f6d4a6a2f688974af346e471d46ef]
link modalitas to study--><g id="link_modalitas_study"><path codeLine="19" d="M70.5,116.27 C70.5,129.76 70.5,144.58 70.5,159.52 " fill="none" id="modalitas-study" style="stroke:#181818;stroke-width:1.0;"/><line style="stroke:#181818;stroke-width:1.0;" x1="70.5" x2="76.5" y1="159.83" y2="167.83"/><line style="stroke:#181818;stroke-width:1.0;" x1="70.5" x2="64.5" y1="159.83" y2="167.83"/><line style="stroke:#181818;stroke-width:1.0;" x1="70.5" x2="70.5" y1="159.83" y2="167.83"/><line style="stroke:#181818;stroke-width:1.0;" x1="74.5" x2="66.5" y1="157.83" y2="157.83"/><line style="stroke:#181818;stroke-width:1.0;" x1="66.5" x2="74.5" y1="112.09" y2="112.09"/><line style="stroke:#181818;stroke-width:1.0;" x1="66.5" x2="74.5" y1="115.09" y2="115.09"/><line style="stroke:#181818;stroke-width:1.0;" x1="70.5" x2="70.5" y1="116.09" y2="108.09"/></g><!--MD5=[150ccab0737a8b5552e7e06c78bd2708]
@startuml mapping 
    entity modalitas{
        CR
        CT
        US
    }

    entity study{
        CR - Thorax
        CR - Extrimitas
        CR - BNO
        CT - CT Head
        CT - CT Abdomen
        CT - SPN
        US - Vascular
        US - Abdomen
        US - Pelvis
    }

    modalitas ||- -|{ study
@end

PlantUML version 1.2022.7(Tue Aug 23 00:01:30 ICT 2022)
(GPL source distribution)
Java Runtime: Java(TM) SE Runtime Environment
JVM: Java HotSpot(TM) Client VM
Default Encoding: Cp1252
Language: en
Country: ID
--></g></svg>